<?xml version="1.0" encoding="UTF-8" standalone="no"?>
<!DOCTYPE svg PUBLIC "-//W3C//DTD SVG 1.1//EN" "http://www.w3.org/Graphics/SVG/1.1/DTD/svg11.dtd">
<svg width="100%" height="100%" viewBox="0 0 611 554" version="1.1" xmlns="http://www.w3.org/2000/svg" xmlns:xlink="http://www.w3.org/1999/xlink" xml:space="preserve" xmlns:serif="http://www.serif.com/" style="fill-rule:evenodd;clip-rule:evenodd;stroke-linecap:round;stroke-linejoin:round;stroke-miterlimit:1.5;">
    <g transform="matrix(1,0,0,1,-1614.65,-998.884)">
        <g id="Ballon">
            <g transform="matrix(1.01076,0,0,1.04204,10.69,224.086)">
                <path d="M1924.48,932.158C1930.93,947.492 1945.84,1204.75 1911.71,1252.45" style="fill:none;stroke:rgb(121,68,74);stroke-width:7.79px;"/>
            </g>
            <g transform="matrix(1.49362,0,0,1.04433,-901.643,216.721)">
                <path d="M1920,1131.89C1914.97,1131.89 1910.89,1126.05 1910.89,1118.86L1867.36,1118.86C1867.36,1126.05 1863.28,1131.89 1858.25,1131.89L1858.25,1143.06C1863.28,1143.06 1867.36,1148.9 1867.36,1156.1L1910.89,1156.1C1910.89,1148.9 1914.97,1143.06 1920,1143.06L1920,1131.89Z" style="fill:rgb(146,116,65);"/>
            </g>
            <g transform="matrix(0.70077,0,0,1.49217,734.948,-218.295)">
                <ellipse cx="1691.07" cy="947.854" rx="430.479" ry="132.146" style="fill:rgb(186,145,88);"/>
                <clipPath id="_clip1">
                    <ellipse cx="1691.07" cy="947.854" rx="430.479" ry="132.146"/>
                </clipPath>
                <g clip-path="url(#_clip1)">
                    <g transform="matrix(1.17917,0,0,0.82054,-225.856,146.387)">
                        <rect x="1029.38" y="976.756" width="1329.46" height="298.333" style="fill:rgb(146,116,65);"/>
                        <g transform="matrix(1.21018,0,0,0.816734,-659.544,215.444)">
                            <path d="M1533.56,1147.43C1527,1140.81 1523.52,1133.9 1523.52,1126.79C1523.52,1078.92 1681.16,1040.06 1875.34,1040.06C2069.52,1040.06 2227.17,1078.92 2227.17,1126.79C2227.17,1133.9 2223.69,1140.81 2217.13,1147.43C2179.52,1109.51 2040.67,1081.34 1875.34,1081.34C1710.02,1081.34 1571.17,1109.51 1533.56,1147.43Z" style="fill:rgb(132,120,117);stroke:rgb(87,72,82);stroke-width:3px;"/>
                        </g>
                        <g transform="matrix(1.1854,-0.164438,0.243653,0.800009,-935.636,542.514)">
                            <path d="M1779.54,1011.14C1779.54,994.755 1766.23,981.45 1749.84,981.45L1732.72,981.45C1716.33,981.45 1703.02,994.755 1703.02,1011.14L1703.02,1022.46C1703.02,1038.85 1716.33,1052.15 1732.72,1052.15L1749.84,1052.15C1766.23,1052.15 1779.54,1038.85 1779.54,1022.46L1779.54,1011.14Z" style="fill:rgb(75,61,68);"/>
                        </g>
                    </g>
                    <g transform="matrix(1.17917,0,0,0.214179,-247.38,735.375)">
                        <rect x="1260.59" y="976.756" width="766.648" height="30.615" style="fill:rgb(75,61,68);"/>
                    </g>
                    <g transform="matrix(-3.97941,-2.28868e-16,2.60832e-16,-1.00024,8945.87,1683.07)">
                        <path d="M1822.46,778.051C1874.6,811.984 1894.52,860.217 1900.05,914.839L1744.88,914.839C1745.21,848.294 1770.19,803.228 1822.46,778.051Z" style="fill:rgb(75,114,110);stroke:rgb(140,171,161);stroke-width:10.73px;"/>
                    </g>
                    <g transform="matrix(0.951335,0,0,0.670163,298.943,323.132)">
                        <rect x="1714.18" y="919.391" width="21.247" height="25.605" style="fill:rgb(87,72,82);"/>
                    </g>
                    <g transform="matrix(0.951335,0,0,0.670163,-208.55,323.132)">
                        <rect x="1714.18" y="919.391" width="21.247" height="25.605" style="fill:rgb(87,72,82);"/>
                    </g>
                </g>
            </g>
            <g transform="matrix(1.01076,0,0,1.04204,10.3465,224.086)">
                <path d="M2187.62,932.761C2183.5,943.268 2018,1198.11 1937.22,1237.97" style="fill:none;stroke:rgb(121,68,74);stroke-width:7.79px;"/>
            </g>
            <g transform="matrix(1.18898,0,0,0.961539,-362.178,312.284)">
                <ellipse cx="1919.85" cy="1273.65" rx="39.927" ry="16.348" style="fill:rgb(87,72,82);"/>
            </g>
            <g transform="matrix(0.26253,0,0,0.547097,1420.42,864.416)">
                <rect x="1719.85" y="1183.43" width="366.182" height="58.817" style="fill:rgb(132,120,117);stroke:rgb(87,72,82);stroke-width:6.99px;"/>
            </g>
            <g transform="matrix(-1.01076,0,0,1.04204,3829.8,224.714)">
                <path d="M1924.48,932.158C1930.93,947.492 1945.84,1204.75 1911.71,1252.45" style="fill:none;stroke:rgb(121,68,74);stroke-width:7.79px;"/>
            </g>
            <g transform="matrix(-1.01076,0,0,1.04204,3829.8,224.714)">
                <path d="M2187.62,932.761C2183.5,943.268 2018,1198.11 1937.22,1237.97" style="fill:none;stroke:rgb(121,68,74);stroke-width:7.79px;"/>
            </g>
        </g>
    </g>
</svg>
