<?xml version="1.0" encoding="UTF-8" standalone="no"?>
<!DOCTYPE svg PUBLIC "-//W3C//DTD SVG 1.1//EN" "http://www.w3.org/Graphics/SVG/1.1/DTD/svg11.dtd">
<svg width="100%" height="100%" viewBox="0 0 386 539" version="1.1" xmlns="http://www.w3.org/2000/svg" xmlns:xlink="http://www.w3.org/1999/xlink" xml:space="preserve" xmlns:serif="http://www.serif.com/" style="fill-rule:evenodd;clip-rule:evenodd;stroke-linecap:round;stroke-linejoin:round;stroke-miterlimit:1.5;">
    <g transform="matrix(1,0,0,1,-1727.45,-1547.77)">
        <g transform="matrix(1,0,0,1.00793,1216.96,538.629)">
            <path d="M891.588,1042.59C891.588,1021.94 874.692,1005.18 853.879,1005.18L552.206,1005.18C531.393,1005.18 514.497,1021.94 514.497,1042.59L514.497,1494.27C514.497,1514.92 531.393,1531.68 552.206,1531.68L853.879,1531.68C874.692,1531.68 891.588,1514.92 891.588,1494.27L891.588,1042.59Z" style="fill:none;"/>
            <clipPath id="_clip1">
                <path d="M891.588,1042.59C891.588,1021.94 874.692,1005.18 853.879,1005.18L552.206,1005.18C531.393,1005.18 514.497,1021.94 514.497,1042.59L514.497,1494.27C514.497,1514.92 531.393,1531.68 552.206,1531.68L853.879,1531.68C874.692,1531.68 891.588,1514.92 891.588,1494.27L891.588,1042.59Z"/>
            </clipPath>
            <g clip-path="url(#_clip1)">
                <g transform="matrix(0.07039,0,0,1,478.281,0)">
                    <path d="M891.588,1018.34C891.588,1011.08 807.104,1005.18 703.043,1005.18C598.981,1005.18 514.497,1011.08 514.497,1018.34L514.497,1518.51C514.497,1525.78 598.981,1531.68 703.043,1531.68C807.104,1531.68 891.588,1525.78 891.588,1518.51L891.588,1018.34Z" style="fill:none;stroke:rgb(146,116,65);stroke-width:11.2px;"/>
                </g>
                <g transform="matrix(0.07039,0,0,1,478.281,0)">
                    <path d="M891.588,1018.34C891.588,1011.08 807.104,1005.18 703.043,1005.18C598.981,1005.18 514.497,1011.08 514.497,1018.34L514.497,1518.51C514.497,1525.78 598.981,1531.68 703.043,1531.68C807.104,1531.68 891.588,1525.78 891.588,1518.51L891.588,1018.34Z" style="fill:none;stroke:rgb(146,116,65);stroke-width:11.2px;"/>
                </g>
                <g transform="matrix(0.07039,0,0,1,831.345,2.57563)">
                    <path d="M891.588,1018.34C891.588,1011.08 807.104,1005.18 703.043,1005.18C598.981,1005.18 514.497,1011.08 514.497,1018.34L514.497,1518.51C514.497,1525.78 598.981,1531.68 703.043,1531.68C807.104,1531.68 891.588,1525.78 891.588,1518.51L891.588,1018.34Z" style="fill:none;stroke:rgb(146,116,65);stroke-width:11.2px;"/>
                </g>
                <g transform="matrix(0.07039,0,0,1,831.345,2.57563)">
                    <path d="M891.588,1018.34C891.588,1011.08 807.104,1005.18 703.043,1005.18C598.981,1005.18 514.497,1011.08 514.497,1018.34L514.497,1518.51C514.497,1525.78 598.981,1531.68 703.043,1531.68C807.104,1531.68 891.588,1525.78 891.588,1518.51L891.588,1018.34Z" style="fill:none;stroke:rgb(146,116,65);stroke-width:11.2px;"/>
                </g>
                <g transform="matrix(-0.125205,0,0,1.04213,653.546,-49.7394)">
                    <path d="M891.588,1027.65C891.588,1015.25 807.104,1005.18 703.043,1005.18C598.981,1005.18 514.497,1015.25 514.497,1027.65L514.497,1509.21C514.497,1521.61 598.981,1531.68 703.043,1531.68C807.104,1531.68 891.588,1521.61 891.588,1509.21L891.588,1027.65Z" style="fill:none;stroke:rgb(146,116,65);stroke-width:10.7px;"/>
                </g>
                <g transform="matrix(-0.125205,0,0,1.04213,653.546,-49.7394)">
                    <path d="M891.588,1027.65C891.588,1015.25 807.104,1005.18 703.043,1005.18C598.981,1005.18 514.497,1015.25 514.497,1027.65L514.497,1509.21C514.497,1521.61 598.981,1531.68 703.043,1531.68C807.104,1531.68 891.588,1521.61 891.588,1509.21L891.588,1027.65Z" style="fill:none;stroke:rgb(146,116,65);stroke-width:10.7px;"/>
                </g>
                <g transform="matrix(-0.12717,0,0,1.03812,701.547,-49.9314)">
                    <path d="M891.588,1028.09C891.588,1015.44 807.104,1005.18 703.043,1005.18C598.981,1005.18 514.497,1015.44 514.497,1028.09L514.497,1508.77C514.497,1521.41 598.981,1531.68 703.043,1531.68C807.104,1531.68 891.588,1521.41 891.588,1508.77L891.588,1028.09Z" style="fill:none;stroke:rgb(146,116,65);stroke-width:10.73px;"/>
                </g>
                <g transform="matrix(-0.12717,0,0,1.03812,701.547,-49.9314)">
                    <path d="M891.588,1028.09C891.588,1015.44 807.104,1005.18 703.043,1005.18C598.981,1005.18 514.497,1015.44 514.497,1028.09L514.497,1508.77C514.497,1521.41 598.981,1531.68 703.043,1531.68C807.104,1531.68 891.588,1521.41 891.588,1508.77L891.588,1028.09Z" style="fill:none;stroke:rgb(146,116,65);stroke-width:10.73px;"/>
                </g>
                <g transform="matrix(-0.135879,0,0,1.06419,756.267,-83.5391)">
                    <path d="M891.588,1029.06C891.588,1015.88 807.104,1005.18 703.043,1005.18C598.981,1005.18 514.497,1015.88 514.497,1029.06L514.497,1507.8C514.497,1520.98 598.981,1531.68 703.043,1531.68C807.104,1531.68 891.588,1520.98 891.588,1507.8L891.588,1029.06Z" style="fill:none;stroke:rgb(146,116,65);stroke-width:10.46px;"/>
                </g>
                <g transform="matrix(-0.135879,0,0,1.06419,756.267,-83.5391)">
                    <path d="M891.588,1029.06C891.588,1015.88 807.104,1005.18 703.043,1005.18C598.981,1005.18 514.497,1015.88 514.497,1029.06L514.497,1507.8C514.497,1520.98 598.981,1531.68 703.043,1531.68C807.104,1531.68 891.588,1520.98 891.588,1507.8L891.588,1029.06Z" style="fill:none;stroke:rgb(146,116,65);stroke-width:10.46px;"/>
                </g>
                <g transform="matrix(0.133288,0,0,1.05818,619.266,-79.602)">
                    <path d="M891.588,1028.74C891.588,1015.73 807.104,1005.18 703.043,1005.18C598.981,1005.18 514.497,1015.73 514.497,1028.74L514.497,1508.12C514.497,1521.12 598.981,1531.68 703.043,1531.68C807.104,1531.68 891.588,1521.12 891.588,1508.12L891.588,1028.74Z" style="fill:none;stroke:rgb(146,116,65);stroke-width:10.53px;"/>
                </g>
                <g transform="matrix(0.133288,0,0,1.05818,619.266,-79.602)">
                    <path d="M891.588,1028.74C891.588,1015.73 807.104,1005.18 703.043,1005.18C598.981,1005.18 514.497,1015.73 514.497,1028.74L514.497,1508.12C514.497,1521.12 598.981,1531.68 703.043,1531.68C807.104,1531.68 891.588,1521.12 891.588,1508.12L891.588,1028.74Z" style="fill:none;stroke:rgb(146,116,65);stroke-width:10.53px;"/>
                </g>
                <g transform="matrix(0.107642,0,0,1.05216,684.345,-70.211)">
                    <path d="M891.588,1024.31C891.588,1013.75 807.104,1005.18 703.043,1005.18C598.981,1005.18 514.497,1013.75 514.497,1024.31L514.497,1512.54C514.497,1523.11 598.981,1531.68 703.043,1531.68C807.104,1531.68 891.588,1523.11 891.588,1512.54L891.588,1024.31Z" style="fill:none;stroke:rgb(146,116,65);stroke-width:10.61px;"/>
                </g>
                <g transform="matrix(0.107642,0,0,1.05216,684.345,-70.211)">
                    <path d="M891.588,1024.31C891.588,1013.75 807.104,1005.18 703.043,1005.18C598.981,1005.18 514.497,1013.75 514.497,1024.31L514.497,1512.54C514.497,1523.11 598.981,1531.68 703.043,1531.68C807.104,1531.68 891.588,1523.11 891.588,1512.54L891.588,1024.31Z" style="fill:none;stroke:rgb(146,116,65);stroke-width:10.61px;"/>
                </g>
                <g transform="matrix(0.111493,0,0,1.04413,723.787,-57.7288)">
                    <path d="M891.588,1025.15C891.588,1014.13 807.104,1005.18 703.043,1005.18C598.981,1005.18 514.497,1014.13 514.497,1025.15L514.497,1511.71C514.497,1522.73 598.981,1531.68 703.043,1531.68C807.104,1531.68 891.588,1522.73 891.588,1511.71L891.588,1025.15Z" style="fill:none;stroke:rgb(146,116,65);stroke-width:10.69px;"/>
                </g>
                <g transform="matrix(0.111493,0,0,1.04413,723.787,-57.7288)">
                    <path d="M891.588,1025.15C891.588,1014.13 807.104,1005.18 703.043,1005.18C598.981,1005.18 514.497,1014.13 514.497,1025.15L514.497,1511.71C514.497,1522.73 598.981,1531.68 703.043,1531.68C807.104,1531.68 891.588,1522.73 891.588,1511.71L891.588,1025.15Z" style="fill:none;stroke:rgb(146,116,65);stroke-width:10.69px;"/>
                </g>
            </g>
            <path d="M891.588,1042.59C891.588,1021.94 874.692,1005.18 853.879,1005.18L552.206,1005.18C531.393,1005.18 514.497,1021.94 514.497,1042.59L514.497,1494.27C514.497,1514.92 531.393,1531.68 552.206,1531.68L853.879,1531.68C874.692,1531.68 891.588,1514.92 891.588,1494.27L891.588,1042.59Z" style="fill:none;stroke:rgb(146,116,65);stroke-width:7.97px;"/>
        </g>
    </g>
</svg>
