<?xml version="1.0" encoding="UTF-8" standalone="no"?>
<!DOCTYPE svg PUBLIC "-//W3C//DTD SVG 1.1//EN" "http://www.w3.org/Graphics/SVG/1.1/DTD/svg11.dtd">
<svg width="100%" height="100%" viewBox="0 0 386 535" version="1.1" xmlns="http://www.w3.org/2000/svg" xmlns:xlink="http://www.w3.org/1999/xlink" xml:space="preserve" xmlns:serif="http://www.serif.com/" style="fill-rule:evenodd;clip-rule:evenodd;stroke-linecap:round;stroke-linejoin:round;stroke-miterlimit:1.5;">
    <g transform="matrix(1,0,0,1,-1727.45,-1547.77)">
        <g transform="matrix(1,0,0,1,1216.96,546.596)">
            <path d="M891.588,1042.88C891.588,1022.07 874.692,1005.18 853.879,1005.18L552.206,1005.18C531.393,1005.18 514.497,1022.07 514.497,1042.88L514.497,1493.97C514.497,1514.79 531.393,1531.68 552.206,1531.68L853.879,1531.68C874.692,1531.68 891.588,1514.79 891.588,1493.97L891.588,1042.88Z" style="fill:rgb(210,201,165);"/>
            <clipPath id="_clip1">
                <path d="M891.588,1042.88C891.588,1022.07 874.692,1005.18 853.879,1005.18L552.206,1005.18C531.393,1005.18 514.497,1022.07 514.497,1042.88L514.497,1493.97C514.497,1514.79 531.393,1531.68 552.206,1531.68L853.879,1531.68C874.692,1531.68 891.588,1514.79 891.588,1493.97L891.588,1042.88Z"/>
            </clipPath>
            <g clip-path="url(#_clip1)">
                <g transform="matrix(0.545623,0.35068,-0.319232,0.496693,595.111,372.267)">
                    <path d="M911.51,734.957L1022.5,1353.1L800.517,1353.1L911.51,734.957Z" style="fill:rgb(174,93,64);"/>
                </g>
                <g transform="matrix(0.847164,0.531332,-0.531332,0.847164,-5.87306,-972.754)">
                    <path d="M1852.65,1766.71L1760.56,1766.71L1783.58,1618.72L1829.63,1618.72L1852.65,1766.71Z" style="fill:rgb(174,93,64);"/>
                </g>
                <g transform="matrix(1,0,0,1,-1167.75,-265.818)">
                    <circle cx="1734.5" cy="1624.11" r="22.926" style="fill:rgb(174,93,64);"/>
                </g>
                <g transform="matrix(1,0,0,1,-1024.76,-169.453)">
                    <circle cx="1734.5" cy="1624.11" r="22.926" style="fill:rgb(174,93,64);"/>
                </g>
                <g transform="matrix(0.993405,0.660609,-0.553736,0.832692,-352.806,-1017.39)">
                    <rect x="1751.6" y="1457.8" width="132.891" height="21.76" style="fill:rgb(174,93,64);"/>
                </g>
            </g>
            <path d="M891.588,1042.88C891.588,1022.07 874.692,1005.18 853.879,1005.18L552.206,1005.18C531.393,1005.18 514.497,1022.07 514.497,1042.88L514.497,1493.97C514.497,1514.79 531.393,1531.68 552.206,1531.68L853.879,1531.68C874.692,1531.68 891.588,1514.79 891.588,1493.97L891.588,1042.88Z" style="fill:none;stroke:rgb(209,177,135);stroke-width:8px;"/>
        </g>
    </g>
</svg>
