<?xml version="1.0" encoding="UTF-8" standalone="no"?>
<!DOCTYPE svg PUBLIC "-//W3C//DTD SVG 1.1//EN" "http://www.w3.org/Graphics/SVG/1.1/DTD/svg11.dtd">
<svg width="100%" height="100%" viewBox="0 0 617 617" version="1.1" xmlns="http://www.w3.org/2000/svg" xmlns:xlink="http://www.w3.org/1999/xlink" xml:space="preserve" xmlns:serif="http://www.serif.com/" style="fill-rule:evenodd;clip-rule:evenodd;stroke-linejoin:round;stroke-miterlimit:2;">
    <g transform="matrix(1,0,0,1,-25.7903,-26.7903)">
        <path d="M334.005,26.79C504.113,26.79 642.219,164.897 642.219,335.005C642.219,505.113 504.113,643.219 334.005,643.219C163.897,643.219 25.79,505.113 25.79,335.005C25.79,164.897 163.897,26.79 334.005,26.79ZM334.005,57.806C181.566,57.806 57.806,181.566 57.806,334.005C57.806,486.443 181.566,610.204 334.005,610.204C486.443,610.204 610.204,486.443 610.204,334.005C610.204,181.566 486.443,57.806 334.005,57.806Z" style="fill:rgb(75,61,68);"/>
        <clipPath id="_clip1">
            <path d="M334.005,26.79C504.113,26.79 642.219,164.897 642.219,335.005C642.219,505.113 504.113,643.219 334.005,643.219C163.897,643.219 25.79,505.113 25.79,335.005C25.79,164.897 163.897,26.79 334.005,26.79ZM334.005,57.806C181.566,57.806 57.806,181.566 57.806,334.005C57.806,486.443 181.566,610.204 334.005,610.204C486.443,610.204 610.204,486.443 610.204,334.005C610.204,181.566 486.443,57.806 334.005,57.806Z"/>
        </clipPath>
        <g clip-path="url(#_clip1)">
            <g transform="matrix(1,0,0,1,54.805,-276.671)">
                <circle cx="279.2" cy="319.421" r="14.583" style="fill:rgb(121,68,74);"/>
            </g>
            <g transform="matrix(1,0,0,1,-236.826,15.5833)">
                <circle cx="279.2" cy="319.421" r="14.583" style="fill:rgb(121,68,74);"/>
            </g>
            <g transform="matrix(1,0,0,1,54.805,306.366)">
                <circle cx="279.2" cy="319.421" r="14.583" style="fill:rgb(121,68,74);"/>
            </g>
            <g transform="matrix(1,0,0,1,345.587,15.5833)">
                <circle cx="279.2" cy="319.421" r="14.583" style="fill:rgb(121,68,74);"/>
            </g>
        </g>
    </g>
</svg>
