<?xml version="1.0" encoding="UTF-8" standalone="no"?>
<!DOCTYPE svg PUBLIC "-//W3C//DTD SVG 1.1//EN" "http://www.w3.org/Graphics/SVG/1.1/DTD/svg11.dtd">
<svg width="100%" height="100%" viewBox="0 0 380 772" version="1.1" xmlns="http://www.w3.org/2000/svg" xmlns:xlink="http://www.w3.org/1999/xlink" xml:space="preserve" xmlns:serif="http://www.serif.com/" style="fill-rule:evenodd;clip-rule:evenodd;stroke-linecap:round;stroke-linejoin:bevel;stroke-miterlimit:1.5;">
    <g transform="matrix(1,0,0,1,-840.043,-815.329)">
        <g transform="matrix(0.682249,0,0,0.682249,50.3203,531.006)">
            <g id="hero_torso_grip" transform="matrix(1.46574,0,0,1.46574,1069.19,105.793)">
                <g transform="matrix(0.491769,0,0,0.491769,-544.788,501.243)">
                    <path d="M1607.77,576.557L1740.21,567.399L1719.78,852.704C1757.17,893.589 1806.06,912.406 1861.38,918.923L1859.27,943.579C1801.81,958.155 1743.59,958.878 1683.15,919.628L1640.88,943.579L1621.16,904.834L1629.61,852.704C1615.48,768.36 1609.94,674.354 1607.77,576.557Z" style="fill:rgb(75,61,68);stroke:black;stroke-width:16.27px;"/>
                </g>
                <g transform="matrix(0.491769,0,0,0.491769,-544.788,501.243)">
                    <path d="M1467.12,594.45C1469.15,693.463 1475.67,781.58 1488.16,855.193L1476.88,883.747C1483.64,906.781 1484.35,923.772 1480.64,936.347C1488.01,953.592 1498.87,965.611 1515.21,969.409C1542.75,975.289 1567.29,970.199 1590.35,959.641C1589.59,924.833 1595.15,890.761 1600.12,857.447L1598.62,589.941L1467.12,594.45Z" style="fill:rgb(75,61,68);stroke:black;stroke-width:16.27px;"/>
                </g>
                <g transform="matrix(0.153903,-0.664663,0.664663,0.153903,-802.662,794.366)">
                    <path d="M961.725,1125.84L1031.28,1153.8L1067.96,1215.47L1099.72,1339.67L1127.1,1391.64L1053.03,1570.93L960.846,1608.49L972.045,1593.33L961.725,1125.84Z" style="fill:rgb(121,68,74);stroke:rgb(174,93,64);stroke-width:11.73px;"/>
                </g>
                <g transform="matrix(1.13091,0,5.55112e-17,1.20364,327.768,-360.103)">
                    <circle cx="68.371" cy="604.096" r="25.609" style="fill:rgb(209,177,135);stroke:rgb(87,72,82);stroke-width:9.13px;stroke-linejoin:round;"/>
                </g>
                <g transform="matrix(0.422251,0,0,0.588441,-453.87,513.686)">
                    <ellipse cx="1639.11" cy="124.579" rx="212.989" ry="106.387" style="fill:rgb(146,116,65);"/>
                </g>
                <g transform="matrix(0.62732,0,0,-0.837336,-753.778,1054.93)">
                    <path d="M1617.64,554.241L1445.93,554.241L1488.86,309.882L1574.72,309.882L1617.64,554.241Z" style="fill:rgb(146,116,65);"/>
                </g>
                <g transform="matrix(0.62732,0,0,-0.837336,-682.732,1048.16)">
                    <path d="M1617.64,554.241L1445.93,554.241L1488.86,309.882L1574.72,309.882L1617.64,554.241Z" style="fill:rgb(146,116,65);"/>
                </g>
                <g transform="matrix(1,0,0,1,-778.873,-602.185)">
                    <path d="M1021.99,1326.5L1023.48,1238.05" style="fill:none;stroke:rgb(75,61,68);stroke-width:8px;"/>
                </g>
                <g transform="matrix(0.682249,0,0,0.682249,-371.592,-506.62)">
                    <path d="M1024.54,1653.63L1021.36,1581.6L1062.67,1344.33L1048.9,1230.99L941.917,1096.46L749.131,1059.39L726.886,1140.95L738.538,1325.26L696.167,1442.84C743.127,1497.92 778.442,1564.65 791.501,1653.63L877.245,1618.36L915.265,1573.64L954.461,1619.62L1024.54,1653.63Z" style="fill:rgb(121,68,74);stroke:rgb(174,93,64);stroke-width:11.73px;"/>
                </g>
                <g transform="matrix(0.695196,-0.0954265,0.132957,0.968615,-551.928,-776.572)">
                    <path d="M1038.05,1276.5C1031.6,1276.5 1026.37,1272.74 1026.37,1268.11L1002.99,1268.11C1002.99,1272.74 997.749,1276.5 991.298,1276.5L991.298,1296.06C997.749,1296.06 1002.99,1299.82 1002.99,1304.45L1026.37,1304.45C1026.37,1299.82 1031.6,1296.06 1038.05,1296.06L1038.05,1276.5Z" style="fill:rgb(209,177,135);"/>
                </g>
                <g transform="matrix(0.825196,0,0,0.682249,-524.862,-506.62)">
                    <ellipse cx="1049.44" cy="1285.17" rx="22.778" ry="43.604" style="fill:rgb(146,116,65);"/>
                    <clipPath id="_clip1">
                        <ellipse cx="1049.44" cy="1285.17" rx="22.778" ry="43.604"/>
                    </clipPath>
                    <g clip-path="url(#_clip1)">
                        <g transform="matrix(0.826772,0,0,1,185.738,0)">
                            <ellipse cx="1049.44" cy="1285.17" rx="22.778" ry="43.604" style="fill:rgb(186,145,88);"/>
                        </g>
                    </g>
                </g>
                <g transform="matrix(0.682249,0,0,0.682249,-371.592,-506.62)">
                    <path d="M701.88,1448.42C803.679,1396.38 873.601,1284.13 924.847,1136.6L966.807,1137.42C905.973,1319.73 822.118,1429.13 719.158,1478.04L701.88,1448.42Z" style="fill:rgb(210,201,165);stroke:rgb(209,177,135);stroke-width:11.73px;"/>
                </g>
                <g>
                    <g transform="matrix(1.13091,0,0,1.20364,316.001,-354.451)">
                        <circle cx="68.371" cy="604.096" r="25.609" style="fill:rgb(209,177,135);stroke:rgb(87,72,82);stroke-width:9.13px;stroke-linejoin:round;"/>
                    </g>
                    <g transform="matrix(0.20155,-0.651798,0.651798,0.20155,-821.797,583.112)">
                        <path d="M785.79,1613.98L808.338,1664.5L709.57,1596.74L529.756,1503.6L557.247,1406.46L576.415,1249.31C552.694,1219.41 634.403,1119.02 754.761,1158.92C826.732,1196.52 772.731,1226.91 726.278,1302.12L665.091,1468.22L833.21,1569.52L785.79,1613.98Z" style="fill:rgb(121,68,74);stroke:rgb(174,93,64);stroke-width:10.55px;"/>
                    </g>
                </g>
            </g>
        </g>
    </g>
</svg>
