<?xml version="1.0" encoding="UTF-8" standalone="no"?>
<!DOCTYPE svg PUBLIC "-//W3C//DTD SVG 1.1//EN" "http://www.w3.org/Graphics/SVG/1.1/DTD/svg11.dtd">
<svg width="100%" height="100%" viewBox="0 0 405 772" version="1.1" xmlns="http://www.w3.org/2000/svg" xmlns:xlink="http://www.w3.org/1999/xlink" xml:space="preserve" xmlns:serif="http://www.serif.com/" style="fill-rule:evenodd;clip-rule:evenodd;stroke-linecap:round;stroke-linejoin:bevel;stroke-miterlimit:1.5;">
    <g transform="matrix(1,0,0,1,-778.873,-814.33)">
        <g transform="matrix(0.682249,0,0,0.682249,50.3203,531.006)">
            <g id="hero_torso_relaxed">
                <g transform="matrix(1,0,0,1,523.212,-638.244)">
                    <path d="M961.725,1125.84L1031.28,1153.8L1067.96,1215.47L1099.72,1339.67L1132.05,1511.34L1060.54,1686.53L933.041,1707.74L972.045,1593.33L961.725,1125.84Z" style="fill:rgb(121,68,74);stroke:rgb(174,93,64);stroke-width:11.73px;"/>
                </g>
                <g transform="matrix(1,0,0,1,523.212,-638.244)">
                    <path d="M785.79,1613.98L836.497,1677.34L627.638,1654.28L549.934,1545.41L557.247,1406.46L602.956,1214.49L725.455,1140.44L761.107,1310.47L687.974,1475.94L706.257,1566.44L785.79,1613.98Z" style="fill:rgb(121,68,74);stroke:rgb(174,93,64);stroke-width:10.55px;"/>
                </g>
                <g transform="matrix(0.777003,0,0,0.777003,325.66,225.13)">
                    <g transform="matrix(0.927675,0,0,0.927675,-72.4693,790.078)">
                        <path d="M1607.77,576.557L1740.21,567.399L1719.78,852.704C1757.17,893.589 1806.06,912.406 1861.38,918.923L1859.27,943.579C1801.81,958.155 1743.59,958.878 1683.15,919.628L1640.88,943.579L1621.16,904.834L1629.61,852.704C1615.48,768.36 1609.94,674.354 1607.77,576.557Z" style="fill:rgb(75,61,68);stroke:black;stroke-width:16.27px;"/>
                    </g>
                    <g transform="matrix(0.927675,0,0,0.927675,-72.4693,790.078)">
                        <path d="M1467.12,594.45C1469.15,693.463 1475.67,781.58 1488.16,855.193L1476.88,883.747C1483.64,906.781 1484.35,923.772 1480.64,936.347C1488.01,953.592 1498.87,965.611 1515.21,969.409C1542.75,975.289 1567.29,970.199 1590.35,959.641C1589.59,924.833 1595.15,890.761 1600.12,857.447L1598.62,589.941L1467.12,594.45Z" style="fill:rgb(75,61,68);stroke:black;stroke-width:16.27px;"/>
                    </g>
                    <g transform="matrix(0.796537,0,0,1.11004,99.0399,813.55)">
                        <ellipse cx="1639.11" cy="124.579" rx="212.989" ry="106.387" style="fill:rgb(146,116,65);"/>
                    </g>
                    <g transform="matrix(1.18338,0,0,-1.57956,-466.708,1834.55)">
                        <path d="M1617.64,554.241L1445.93,554.241L1488.86,309.882L1574.72,309.882L1617.64,554.241Z" style="fill:rgb(146,116,65);"/>
                    </g>
                    <g transform="matrix(1.18338,0,0,-1.57956,-332.688,1821.79)">
                        <path d="M1617.64,554.241L1445.93,554.241L1488.86,309.882L1574.72,309.882L1617.64,554.241Z" style="fill:rgb(146,116,65);"/>
                    </g>
                </g>
                <g transform="matrix(1.46574,0,0,1.46574,-73.7566,-778.318)">
                    <path d="M1021.99,1326.5L1023.48,1238.05" style="fill:none;stroke:rgb(75,61,68);stroke-width:8px;"/>
                </g>
                <g transform="matrix(1,0,0,1,523.212,-638.244)">
                    <path d="M1024.54,1653.63L1021.36,1581.6L1062.67,1344.33L1048.9,1230.99L941.917,1096.46L749.131,1059.39L726.886,1140.95L738.538,1325.26L696.167,1442.84C743.127,1497.92 778.442,1564.65 791.501,1653.63L877.245,1618.36L915.265,1573.64L954.461,1619.62L1024.54,1653.63Z" style="fill:rgb(121,68,74);stroke:rgb(174,93,64);stroke-width:11.73px;"/>
                </g>
                <g id="medal" transform="matrix(1,0,0,1,523.212,-638.244)">
                    <g transform="matrix(1.01898,-0.139871,0.194881,1.41974,-264.327,-395.68)">
                        <path d="M1038.05,1276.5C1031.6,1276.5 1026.37,1272.74 1026.37,1268.11L1002.99,1268.11C1002.99,1272.74 997.749,1276.5 991.298,1276.5L991.298,1296.06C997.749,1296.06 1002.99,1299.82 1002.99,1304.45L1026.37,1304.45C1026.37,1299.82 1031.6,1296.06 1038.05,1296.06L1038.05,1276.5Z" style="fill:rgb(209,177,135);"/>
                    </g>
                    <g transform="matrix(1.20952,0,0,1,-224.655,-1.42109e-14)">
                        <ellipse cx="1049.44" cy="1285.17" rx="22.778" ry="43.604" style="fill:rgb(146,116,65);"/>
                        <clipPath id="_clip1">
                            <ellipse cx="1049.44" cy="1285.17" rx="22.778" ry="43.604"/>
                        </clipPath>
                        <g clip-path="url(#_clip1)">
                            <g transform="matrix(0.826772,0,0,1,185.738,0)">
                                <ellipse cx="1049.44" cy="1285.17" rx="22.778" ry="43.604" style="fill:rgb(186,145,88);"/>
                            </g>
                        </g>
                    </g>
                </g>
                <g transform="matrix(1,0,0,1,523.212,-638.244)">
                    <path d="M701.88,1448.42C803.679,1396.38 873.601,1284.13 924.847,1136.6L966.807,1137.42C905.973,1319.73 822.118,1429.13 719.158,1478.04L701.88,1448.42Z" style="fill:rgb(210,201,165);stroke:rgb(209,177,135);stroke-width:11.73px;"/>
                </g>
            </g>
        </g>
    </g>
</svg>
