<?xml version="1.0" encoding="UTF-8" standalone="no"?>
<!DOCTYPE svg PUBLIC "-//W3C//DTD SVG 1.1//EN" "http://www.w3.org/Graphics/SVG/1.1/DTD/svg11.dtd">
<svg width="100%" height="100%" viewBox="0 0 209 296" version="1.1" xmlns="http://www.w3.org/2000/svg" xmlns:xlink="http://www.w3.org/1999/xlink" xml:space="preserve" xmlns:serif="http://www.serif.com/" style="fill-rule:evenodd;clip-rule:evenodd;stroke-linecap:round;stroke-linejoin:bevel;stroke-miterlimit:1.5;">
    <g transform="matrix(1,0,0,1,-880.267,-602.185)">
        <g transform="matrix(0.682249,0,0,0.682249,50.3203,531.006)">
            <g id="hero_head" transform="matrix(1,0,0,1,523.212,-638.244)">
                <path d="M828.196,1155.38C845.137,1163.41 863.213,1168.03 882.323,1169.56C909.834,1170.04 936.881,1166.4 962.226,1152.8C980.337,1136.97 990.231,1112.93 993.156,1081.92L962.226,1038.1L932.174,955.827L927.75,877.284L881.466,832.352L782.015,812.145L731.867,856.486L701.25,934.084L699.138,971.563L720.781,995.845L721.837,1019.07L753.509,1048.11L789.933,1124.12L828.196,1155.38Z" style="fill:rgb(209,177,135);"/>
                <clipPath id="_clip1">
                    <path d="M828.196,1155.38C845.137,1163.41 863.213,1168.03 882.323,1169.56C909.834,1170.04 936.881,1166.4 962.226,1152.8C980.337,1136.97 990.231,1112.93 993.156,1081.92L962.226,1038.1L932.174,955.827L927.75,877.284L881.466,832.352L782.015,812.145L731.867,856.486L701.25,934.084L699.138,971.563L720.781,995.845L721.837,1019.07L753.509,1048.11L789.933,1124.12L828.196,1155.38Z"/>
                </clipPath>
                <g clip-path="url(#_clip1)">
                    <g transform="matrix(1.64643,-0.320955,0.191339,0.981524,-752.646,263.428)">
                        <ellipse cx="868.59" cy="988.609" rx="12.753" ry="25.917" style="fill:rgb(199,123,88);"/>
                    </g>
                </g>
                <path d="M828.196,1155.38C845.137,1163.41 863.213,1168.03 882.323,1169.56C909.834,1170.04 936.881,1166.4 962.226,1152.8C980.337,1136.97 990.231,1112.93 993.156,1081.92L962.226,1038.1L932.174,955.827L927.75,877.284L881.466,832.352L782.015,812.145L731.867,856.486L701.25,934.084L699.138,971.563L720.781,995.845L721.837,1019.07L753.509,1048.11L789.933,1124.12L828.196,1155.38Z" style="fill:none;stroke:rgb(75,61,68);stroke-width:11.73px;"/>
                <path d="M892.111,790.622L844.063,742.574C779.064,775.368 728.944,821.765 699.536,887.1L703.35,964.701L723.179,984.531L723.561,1019.23L754.067,1049.74C759.319,1081.45 769.021,1107.52 789.532,1119.9L834.148,1111.52C800.234,1092.46 781.75,1055.96 771.228,1010.46C759.972,1004.53 753.247,987.281 752.161,955.931L739.958,890.341C741.547,868.541 749.809,853.415 763.601,843.818C778.346,831.234 794.108,829.327 810.886,838.098C836.849,851.54 858.649,852.494 876.476,841.53L892.111,790.622Z" style="fill:rgb(75,61,68);"/>
                <g transform="matrix(1,0,0,1,8.24718,21.1559)">
                    <path d="M841.288,991.485L822.911,1021.96C834.752,1042.8 848.271,1053.57 863.698,1052.89C874.299,1058.22 898.517,1048.31 938.999,1020.17C925.56,1011.02 921.802,996.6 921.519,980.279C897.603,997.026 871.179,1002.23 841.288,991.485Z" style="fill:white;"/>
                    <clipPath id="_clip2">
                        <path d="M841.288,991.485L822.911,1021.96C834.752,1042.8 848.271,1053.57 863.698,1052.89C874.299,1058.22 898.517,1048.31 938.999,1020.17C925.56,1011.02 921.802,996.6 921.519,980.279C897.603,997.026 871.179,1002.23 841.288,991.485Z"/>
                    </clipPath>
                    <g clip-path="url(#_clip2)">
                        <g transform="matrix(1,0,0,1,-8.24718,-21.1559)">
                            <path d="M825.184,1041.66C825.184,1041.66 868.061,1055.69 899.242,1042.78" style="fill:none;stroke:rgb(75,61,68);stroke-width:11.73px;"/>
                        </g>
                    </g>
                </g>
                <g transform="matrix(1,0,0,1,231.597,587.836)">
                    <circle cx="573.548" cy="317.319" r="16" style="fill:rgb(75,114,110);stroke:rgb(140,171,161);stroke-width:5.86px;stroke-linejoin:round;"/>
                </g>
                <g transform="matrix(1,0,0,1,309.818,575.346)">
                    <circle cx="573.548" cy="317.319" r="16" style="fill:rgb(75,114,110);stroke:rgb(140,171,161);stroke-width:5.86px;stroke-linejoin:round;"/>
                </g>
            </g>
        </g>
    </g>
</svg>
