<?xml version="1.0" encoding="UTF-8" standalone="no"?>
<!DOCTYPE svg PUBLIC "-//W3C//DTD SVG 1.1//EN" "http://www.w3.org/Graphics/SVG/1.1/DTD/svg11.dtd">
<svg width="100%" height="100%" viewBox="0 0 2816 1408" version="1.1" xmlns="http://www.w3.org/2000/svg" xmlns:xlink="http://www.w3.org/1999/xlink" xml:space="preserve" xmlns:serif="http://www.serif.com/" style="fill-rule:evenodd;clip-rule:evenodd;stroke-linecap:round;stroke-linejoin:bevel;stroke-miterlimit:1.5;">
    <g transform="matrix(1.05185,0,0,1.08202,-1143.4,-1043.79)">
        <path d="M2473.53,1572.92C2506.07,1474.02 2544.15,1375.58 2593.8,1278.11C2629.99,1252.05 2666.18,1222.78 2702.37,1189.59C2702.63,1189.34 2709.88,1150.33 2709.88,1150.33L2730.76,1182.9L2749.13,1148.66C2749.13,1148.66 2762.86,1185.45 2763.14,1185.69C2808.96,1226.03 2851.96,1257.63 2897.79,1282.29C2950.59,1326.7 2996.98,1422.43 3043.94,1513.62C3008.15,1470.5 2964.39,1440.45 2908.65,1430.11C2917.55,1374.13 2894.57,1345.07 2839.33,1343.25C2821.67,1301.16 2802.38,1279.97 2771.89,1262.12C2781.08,1262.33 2728.62,1355.47 2728.62,1355.47C2728.62,1355.47 2705.75,1281.1 2687.33,1254.73C2662.99,1271.42 2648.22,1292.5 2658.1,1324.88C2606.42,1354.81 2596.12,1393.2 2607.16,1435.95C2533.85,1489.83 2505.85,1530.76 2473.53,1572.92Z"/>
    </g>
    <g transform="matrix(1.12788,0,0,1.09979,-1881.87,-140.48)">
        <path d="M1947.81,173.066L1940.67,287.511L1904.94,361.633L1905.84,418.788L1881.73,504.52C1881.73,504.52 1876.77,520.304 1904.45,508.695C1910.47,506.173 1919.71,508.696 1919.71,508.696L1936.2,551.851L1957.5,512.831L1987.1,550.065L1992.09,512.729C1992.09,512.729 2001.72,512.033 2006.26,513.347C2010.98,514.714 2016.71,521.979 2020.43,520.93C2031.84,517.711 2029.55,500.146 2028.67,478.784C2027.79,457.422 2022.56,380.506 2018.9,375.476C2015.24,370.446 2031.7,340.269 2040.85,339.354C2049.99,338.44 2037.19,324.723 2025.3,318.779C2013.41,312.835 1987.4,238.155 1986.44,232.132C1985.7,227.567 1975.92,173.066 1975.92,173.066L1963.56,225.885L1947.81,173.066Z" style="stroke:black;stroke-width:7.18px;"/>
    </g>
    <g transform="matrix(0.951378,0,0,0.944443,440.316,-258.943)">
        <path d="M509.75,471.692C509.75,471.692 463.222,578.172 490.936,629.683C520.31,684.28 508.045,751.862 508.045,751.862C521.474,746.018 528.963,753.333 562.148,668.207L570.409,681.285C579.797,690.735 584.456,711.221 585.995,738.985L637.365,706.731L689.584,741.585C687.159,719.31 684.893,697.103 700.997,682.769L708.113,668.207C712.963,699.616 737.261,735.152 765.902,746.925C765.902,746.925 751.46,648.846 775.231,616.207C798.071,584.846 776.834,471.348 776.834,471.348C755.936,436.549 726.557,418.712 690.03,415.17C690.03,415.17 733.858,488.678 719.869,521.335C716.612,528.938 716.969,549.032 707.941,555.944C702.343,560.229 644.181,329.389 644.181,329.389L639.899,329.337C639.899,329.337 638.861,482.939 636.675,480.388C631.456,481.566 615.113,329.607 615.113,329.607L609.541,329.521C609.541,329.521 564.305,560.955 559.539,557.204C547.552,547.771 550.921,531.013 551.467,519.896C553.801,472.34 561.845,436.519 571.223,416.095C573.685,410.734 570.255,401.198 570.255,401.198C570.255,401.198 507.567,454.228 509.75,471.692Z" style="stroke:black;stroke-width:8.44px;"/>
    </g>
    <g transform="matrix(1,0,0,1,1646.51,-1246.76)">
        <path d="M721.501,1391.4C721.266,1395.18 731.842,1388.29 731.92,1392.04C732.701,1429.2 737.713,1475.59 758.147,1511.53L769.294,1473.13L805.474,1513.78L839.278,1474.99L851.665,1510.29C879.024,1478.79 894.759,1438.98 898.734,1390.76C951.508,1362.31 1007.71,1341.09 1075.54,1344.4C1120.09,1357.55 1139.98,1370.7 1149.44,1383.86C1079.79,1394.88 1056.25,1421.28 1081.8,1464.03C1010.28,1437.36 961.025,1461.89 939.615,1550.47C898.37,1528.29 873.36,1543.27 843.807,1596.25L797.256,1695.16L751.581,1584.92C728.324,1523.75 692.66,1512.32 654.37,1549.69C661.397,1449.2 614.709,1431.71 548.202,1444.86C568.928,1401.97 549.947,1373.88 485.488,1362.73C517.513,1340.74 553.339,1325.81 597.058,1325.54C635.001,1331.83 671.862,1358.37 721.501,1391.4Z"/>
    </g>
</svg>
