<?xml version="1.0" encoding="UTF-8" standalone="no"?>
<!DOCTYPE svg PUBLIC "-//W3C//DTD SVG 1.1//EN" "http://www.w3.org/Graphics/SVG/1.1/DTD/svg11.dtd">
<svg width="100%" height="100%" viewBox="0 0 1074 1280" version="1.1" xmlns="http://www.w3.org/2000/svg" xmlns:xlink="http://www.w3.org/1999/xlink" xml:space="preserve" xmlns:serif="http://www.serif.com/" style="fill-rule:evenodd;clip-rule:evenodd;stroke-linecap:round;stroke-linejoin:bevel;stroke-miterlimit:1.5;">
    <g transform="matrix(1,0,0,1,-2163.93,-446.653)">
        <g transform="matrix(1,0,0,1,33.3495,104.495)">
            <path id="dragon_torso" d="M2264.95,1312.93C2279.03,1258.68 2300.35,1203.23 2325.83,1147.08L2294,1099.15L2268.14,1083.19L2249.42,1101.15L2202.1,1024.31L2182.41,1042.06L2178.69,990.061L2156.68,993.837L2159.17,952.767L2140.04,953.111L2153.67,896.358L2134.58,895.93C2134.58,895.93 2161.89,846.665 2171.28,827.291L2150.01,826.836L2190.54,764.829L2163.17,764.873L2209.71,717.907C2209.85,716.573 2183.84,717.675 2183.84,717.675C2183.84,717.675 2224.1,688.256 2233.83,672.147L2205.65,673.182L2254.22,635.22L2226.53,633.541C2240.7,620.24 2271.04,605.085 2270.85,585.628L2227.43,392.016C2255.37,368.616 2318.78,340.706 2371.24,347.08C2431.61,404.693 2454.73,481.567 2458.11,577.19C2460.42,642.676 2452.71,639.063 2454.32,710.285C2707.88,659.348 3131.19,1218.99 3144.21,1244.37C3191.51,1287.95 3199.98,1336.11 3199.41,1396.79C3204.47,1495.18 3150.43,1544.65 3056.32,1560.97C2670.4,1629.77 2402.7,1625.32 2290.78,1601.67C2393.02,1596.86 2589.98,1585.26 2704.11,1571.06C2847.37,1554.81 2960.12,1510.7 3079.66,1429.24C3062.58,1353.03 3032.85,1305.24 2911.4,1301.4C2897.37,1350.83 2862.52,1418.54 2849.61,1498.23C2790.89,1521.6 2752.94,1520.66 2693.1,1505.94C2664.61,1499.45 2661.86,1507.87 2655.5,1514.19C2653.65,1506.19 2655.31,1495.39 2664.67,1478.42L2644.11,1493.71C2645.68,1465.98 2660.72,1451.15 2683.59,1440.24C2695.23,1441.79 2727.7,1450.63 2761.89,1460.08C2783.12,1436.61 2799.05,1390.85 2809.06,1360.66C2766.03,1373.09 2723.91,1394.95 2687.6,1389.45L2583.95,1392.2L2545.43,1398.62L2553.69,1383.03L2529.84,1392.2L2538.09,1373.86L2568.36,1345.42C2587.31,1334.3 2610.79,1333.67 2636.24,1337.17L2633.48,1322.49C2603.12,1326.36 2581.72,1315.66 2569.28,1290.39C2562.22,1263.79 2566.67,1238.62 2577.53,1214.26L2600.16,1188.98C2584.48,1183.2 2564.11,1189.14 2540.85,1202.34C2512.8,1239.96 2491.67,1286.79 2479.39,1345.42C2441.94,1372.51 2414.94,1405.56 2414.27,1453.66C2413.87,1467.37 2402.68,1472.98 2379.99,1469.96L2325.79,1459.6L2254.67,1472.46L2240,1467.87L2199.64,1484.38L2229.91,1440.36L2211.56,1438.52L2247.34,1413.76L2289.53,1417.43C2319.41,1413.88 2343.05,1399.26 2358.32,1369.73C2374.21,1313.3 2398.73,1261.67 2431.7,1214.72L2420.69,1195.46L2352.87,1307.72L2342.77,1354.85C2343.04,1371.73 2327.15,1392.28 2291.8,1393.32L2260.64,1384.18L2231.2,1389.47C2215.36,1400.73 2198.51,1402.01 2180.23,1388.99L2144.64,1408.22L2161.96,1371.68L2137.91,1382.74L2173.02,1342.34L2264.95,1312.93Z" style="fill:rgb(75,114,110);"/>
            <clipPath id="_clip1">
                <path id="dragon_torso1" serif:id="dragon_torso" d="M2264.95,1312.93C2279.03,1258.68 2300.35,1203.23 2325.83,1147.08L2294,1099.15L2268.14,1083.19L2249.42,1101.15L2202.1,1024.31L2182.41,1042.06L2178.69,990.061L2156.68,993.837L2159.17,952.767L2140.04,953.111L2153.67,896.358L2134.58,895.93C2134.58,895.93 2161.89,846.665 2171.28,827.291L2150.01,826.836L2190.54,764.829L2163.17,764.873L2209.71,717.907C2209.85,716.573 2183.84,717.675 2183.84,717.675C2183.84,717.675 2224.1,688.256 2233.83,672.147L2205.65,673.182L2254.22,635.22L2226.53,633.541C2240.7,620.24 2271.04,605.085 2270.85,585.628L2227.43,392.016C2255.37,368.616 2318.78,340.706 2371.24,347.08C2431.61,404.693 2454.73,481.567 2458.11,577.19C2460.42,642.676 2452.71,639.063 2454.32,710.285C2707.88,659.348 3131.19,1218.99 3144.21,1244.37C3191.51,1287.95 3199.98,1336.11 3199.41,1396.79C3204.47,1495.18 3150.43,1544.65 3056.32,1560.97C2670.4,1629.77 2402.7,1625.32 2290.78,1601.67C2393.02,1596.86 2589.98,1585.26 2704.11,1571.06C2847.37,1554.81 2960.12,1510.7 3079.66,1429.24C3062.58,1353.03 3032.85,1305.24 2911.4,1301.4C2897.37,1350.83 2862.52,1418.54 2849.61,1498.23C2790.89,1521.6 2752.94,1520.66 2693.1,1505.94C2664.61,1499.45 2661.86,1507.87 2655.5,1514.19C2653.65,1506.19 2655.31,1495.39 2664.67,1478.42L2644.11,1493.71C2645.68,1465.98 2660.72,1451.15 2683.59,1440.24C2695.23,1441.79 2727.7,1450.63 2761.89,1460.08C2783.12,1436.61 2799.05,1390.85 2809.06,1360.66C2766.03,1373.09 2723.91,1394.95 2687.6,1389.45L2583.95,1392.2L2545.43,1398.62L2553.69,1383.03L2529.84,1392.2L2538.09,1373.86L2568.36,1345.42C2587.31,1334.3 2610.79,1333.67 2636.24,1337.17L2633.48,1322.49C2603.12,1326.36 2581.72,1315.66 2569.28,1290.39C2562.22,1263.79 2566.67,1238.62 2577.53,1214.26L2600.16,1188.98C2584.48,1183.2 2564.11,1189.14 2540.85,1202.34C2512.8,1239.96 2491.67,1286.79 2479.39,1345.42C2441.94,1372.51 2414.94,1405.56 2414.27,1453.66C2413.87,1467.37 2402.68,1472.98 2379.99,1469.96L2325.79,1459.6L2254.67,1472.46L2240,1467.87L2199.64,1484.38L2229.91,1440.36L2211.56,1438.52L2247.34,1413.76L2289.53,1417.43C2319.41,1413.88 2343.05,1399.26 2358.32,1369.73C2374.21,1313.3 2398.73,1261.67 2431.7,1214.72L2420.69,1195.46L2352.87,1307.72L2342.77,1354.85C2343.04,1371.73 2327.15,1392.28 2291.8,1393.32L2260.64,1384.18L2231.2,1389.47C2215.36,1400.73 2198.51,1402.01 2180.23,1388.99L2144.64,1408.22L2161.96,1371.68L2137.91,1382.74L2173.02,1342.34L2264.95,1312.93Z"/>
            </clipPath>
            <g clip-path="url(#_clip1)">
                <g transform="matrix(1,0,0,1,-33.3495,-104.495)">
                    <path d="M2299.95,1227.31C2157.73,1280.74 2105.46,689.705 2243.75,680.636C2336.14,674.577 2429.23,794.343 2333.73,943.789C2312.19,977.499 2332.43,1046.54 2343.45,1078.65C2437.5,1166.1 2498.47,1252 2477.02,1279.13C2458.45,1302.63 2387.9,1280.07 2299.95,1227.31Z" style="fill:rgb(140,171,161);stroke:rgb(209,177,135);stroke-width:8px;"/>
                </g>
                <g transform="matrix(0.977721,-0.209911,0.209911,0.977721,-287.808,393.147)">
                    <path d="M2191.78,1420.84L2150.2,1422.12L2150.2,1533.58L2201.41,1518.73C2210.28,1475.06 2201.77,1450.67 2191.78,1420.84Z" style="fill:rgb(210,201,165);"/>
                </g>
                <g transform="matrix(0.977721,-0.209911,0.209911,0.977721,107.056,388.776)">
                    <path d="M2191.78,1420.84L2150.2,1422.12L2150.2,1533.58L2201.41,1518.73C2210.28,1475.06 2201.77,1450.67 2191.78,1420.84Z" style="fill:rgb(210,201,165);"/>
                </g>
                <g transform="matrix(0.986271,0.165132,-0.165132,0.986271,751.005,-338.58)">
                    <path d="M2191.78,1420.84L2150.2,1422.12L2150.2,1533.58L2201.41,1518.73C2210.28,1475.06 2201.77,1450.67 2191.78,1420.84Z" style="fill:rgb(210,201,165);"/>
                </g>
                <g transform="matrix(0.999541,0.0303043,-0.0303043,0.999541,86.0165,-80.8685)">
                    <path d="M2201.2,1422.12L2150.2,1422.12L2150.2,1533.58L2195.72,1521.36C2201.87,1476.86 2210.08,1448.65 2201.2,1422.12Z" style="fill:rgb(210,201,165);"/>
                </g>
                <g transform="matrix(-0.0373913,0.913032,-0.608134,-0.0249048,3498.27,-1276.71)">
                    <path d="M2677.64,1182.77C2716.38,1192.19 2754.68,1197.93 2738.43,1315.46C2811.03,1395.07 2751.49,1440.63 2637.24,1423.48C2619.34,1420.79 2607.22,1383.69 2587.47,1376.08C2599.47,1290.55 2630.19,1226.88 2677.64,1182.77Z" style="fill:rgb(140,171,161);stroke:rgb(209,177,135);stroke-width:10.3px;"/>
                </g>
                <g transform="matrix(1,0,0,1,-33.3495,-104.495)">
                    <path d="M2835.11,1464.42C2809.84,1444.66 2700.74,1430.15 2700.5,1344.69C2712.38,1241.5 2709.34,1153.48 2783.78,1086.26" style="fill:none;stroke:rgb(75,61,68);stroke-width:8px;"/>
                </g>
            </g>
            <path id="dragon_torso2" serif:id="dragon_torso" d="M2264.95,1312.93C2279.03,1258.68 2300.35,1203.23 2325.83,1147.08L2294,1099.15L2268.14,1083.19L2249.42,1101.15L2202.1,1024.31L2182.41,1042.06L2178.69,990.061L2156.68,993.837L2159.17,952.767L2140.04,953.111L2153.67,896.358L2134.58,895.93C2134.58,895.93 2161.89,846.665 2171.28,827.291L2150.01,826.836L2190.54,764.829L2163.17,764.873L2209.71,717.907C2209.85,716.573 2183.84,717.675 2183.84,717.675C2183.84,717.675 2224.1,688.256 2233.83,672.147L2205.65,673.182L2254.22,635.22L2226.53,633.541C2240.7,620.24 2271.04,605.085 2270.85,585.628L2227.43,392.016C2255.37,368.616 2318.78,340.706 2371.24,347.08C2431.61,404.693 2454.73,481.567 2458.11,577.19C2460.42,642.676 2452.71,639.063 2454.32,710.285C2707.88,659.348 3131.19,1218.99 3144.21,1244.37C3191.51,1287.95 3199.98,1336.11 3199.41,1396.79C3204.47,1495.18 3150.43,1544.65 3056.32,1560.97C2670.4,1629.77 2402.7,1625.32 2290.78,1601.67C2393.02,1596.86 2589.98,1585.26 2704.11,1571.06C2847.37,1554.81 2960.12,1510.7 3079.66,1429.24C3062.58,1353.03 3032.85,1305.24 2911.4,1301.4C2897.37,1350.83 2862.52,1418.54 2849.61,1498.23C2790.89,1521.6 2752.94,1520.66 2693.1,1505.94C2664.61,1499.45 2661.86,1507.87 2655.5,1514.19C2653.65,1506.19 2655.31,1495.39 2664.67,1478.42L2644.11,1493.71C2645.68,1465.98 2660.72,1451.15 2683.59,1440.24C2695.23,1441.79 2727.7,1450.63 2761.89,1460.08C2783.12,1436.61 2799.05,1390.85 2809.06,1360.66C2766.03,1373.09 2723.91,1394.95 2687.6,1389.45L2583.95,1392.2L2545.43,1398.62L2553.69,1383.03L2529.84,1392.2L2538.09,1373.86L2568.36,1345.42C2587.31,1334.3 2610.79,1333.67 2636.24,1337.17L2633.48,1322.49C2603.12,1326.36 2581.72,1315.66 2569.28,1290.39C2562.22,1263.79 2566.67,1238.62 2577.53,1214.26L2600.16,1188.98C2584.48,1183.2 2564.11,1189.14 2540.85,1202.34C2512.8,1239.96 2491.67,1286.79 2479.39,1345.42C2441.94,1372.51 2414.94,1405.56 2414.27,1453.66C2413.87,1467.37 2402.68,1472.98 2379.99,1469.96L2325.79,1459.6L2254.67,1472.46L2240,1467.87L2199.64,1484.38L2229.91,1440.36L2211.56,1438.52L2247.34,1413.76L2289.53,1417.43C2319.41,1413.88 2343.05,1399.26 2358.32,1369.73C2374.21,1313.3 2398.73,1261.67 2431.7,1214.72L2420.69,1195.46L2352.87,1307.72L2342.77,1354.85C2343.04,1371.73 2327.15,1392.28 2291.8,1393.32L2260.64,1384.18L2231.2,1389.47C2215.36,1400.73 2198.51,1402.01 2180.23,1388.99L2144.64,1408.22L2161.96,1371.68L2137.91,1382.74L2173.02,1342.34L2264.95,1312.93Z" style="fill:none;stroke:rgb(77,69,57);stroke-width:8px;"/>
        </g>
    </g>
</svg>
