<?xml version="1.0" encoding="UTF-8" standalone="no"?>
<!DOCTYPE svg PUBLIC "-//W3C//DTD SVG 1.1//EN" "http://www.w3.org/Graphics/SVG/1.1/DTD/svg11.dtd">
<svg width="100%" height="100%" viewBox="0 0 502 335" version="1.1" xmlns="http://www.w3.org/2000/svg" xmlns:xlink="http://www.w3.org/1999/xlink" xml:space="preserve" xmlns:serif="http://www.serif.com/" style="fill-rule:evenodd;clip-rule:evenodd;stroke-linecap:round;stroke-linejoin:round;stroke-miterlimit:1.5;">
    <g transform="matrix(1,0,0,1,-1936.29,-325.829)">
        <g transform="matrix(1,0,0,1,1484.62,188.62)">
            <g id="dragon_upper_head" transform="matrix(1,0,0,1,-1484.62,-188.62)">
                <path d="M2084.04,655.946C2002.08,644.393 1940.29,593.776 1940.29,533.161C1940.29,516.696 1944.85,500.968 1953.14,486.561C1945.07,477.255 1940.29,465.697 1940.29,453.18C1940.29,422.429 1969.14,397.463 2004.68,397.463C2024.12,397.463 2041.56,404.939 2053.37,416.748C2062.99,414.072 2073.01,411.96 2083.36,410.472C2083.02,410.964 2098.99,410.472 2107.58,410.472C2130.24,410.472 2151.82,414.008 2171.39,420.387C2169.75,414.705 2168.88,408.759 2168.88,402.637C2168.88,383.649 2177.28,366.348 2191.03,353.381C2206.37,338.906 2228.39,329.829 2252.83,329.829C2295,329.829 2329.95,356.855 2335.89,392.01C2340.81,391.064 2345.89,390.57 2351.09,390.57C2396.47,390.57 2433.32,428.343 2433.32,474.868C2433.32,521.394 2396.47,559.166 2351.09,559.166C2337.31,559.166 2334.58,561.799 2324.44,556.404C2323.91,556.012 2323.22,555.621 2322.33,555.229C2323.07,555.658 2323.77,556.048 2324.44,556.404C2324.95,556.784 2325.32,557.165 2325.56,557.551C2313.9,553.088 2302.72,547.36 2295.48,542.325C2282.51,561.446 2255.07,580.939 2220.76,593.287C2208.79,597.593 2197.01,600.664 2185.84,602.547C2159.03,630.68 2123.62,650.01 2084.04,655.946Z" style="fill:rgb(75,114,110);"/>
                <clipPath id="_clip1">
                    <path d="M2084.04,655.946C2002.08,644.393 1940.29,593.776 1940.29,533.161C1940.29,516.696 1944.85,500.968 1953.14,486.561C1945.07,477.255 1940.29,465.697 1940.29,453.18C1940.29,422.429 1969.14,397.463 2004.68,397.463C2024.12,397.463 2041.56,404.939 2053.37,416.748C2062.99,414.072 2073.01,411.96 2083.36,410.472C2083.02,410.964 2098.99,410.472 2107.58,410.472C2130.24,410.472 2151.82,414.008 2171.39,420.387C2169.75,414.705 2168.88,408.759 2168.88,402.637C2168.88,383.649 2177.28,366.348 2191.03,353.381C2206.37,338.906 2228.39,329.829 2252.83,329.829C2295,329.829 2329.95,356.855 2335.89,392.01C2340.81,391.064 2345.89,390.57 2351.09,390.57C2396.47,390.57 2433.32,428.343 2433.32,474.868C2433.32,521.394 2396.47,559.166 2351.09,559.166C2337.31,559.166 2334.58,561.799 2324.44,556.404C2323.91,556.012 2323.22,555.621 2322.33,555.229C2323.07,555.658 2323.77,556.048 2324.44,556.404C2324.95,556.784 2325.32,557.165 2325.56,557.551C2313.9,553.088 2302.72,547.36 2295.48,542.325C2282.51,561.446 2255.07,580.939 2220.76,593.287C2208.79,597.593 2197.01,600.664 2185.84,602.547C2159.03,630.68 2123.62,650.01 2084.04,655.946Z"/>
                </clipPath>
                <g clip-path="url(#_clip1)">
                    <g transform="matrix(1.16439,0,0,0.948718,1411.5,202.007)">
                        <path d="M491.534,316.509C491.534,316.509 423.836,284.771 451.427,261.043" style="fill:none;stroke:black;stroke-width:3.77px;"/>
                    </g>
                    <g transform="matrix(1,0,0,1,1484.62,188.62)">
                        <path d="M701.704,233.813L763.48,171.636L797.47,192.92L778.392,247.419C764.955,248.315 753.269,253.905 746.165,262.027C738.054,251.778 722.061,241.5 701.704,233.813Z" style="fill:rgb(210,201,165);"/>
                        <clipPath id="_clip2">
                            <path d="M701.704,233.813L763.48,171.636L797.47,192.92L778.392,247.419C764.955,248.315 753.269,253.905 746.165,262.027C738.054,251.778 722.061,241.5 701.704,233.813Z"/>
                        </clipPath>
                        <g clip-path="url(#_clip2)">
                            <g transform="matrix(1,0,0,1,173.867,-93.3333)">
                                <circle cx="573.548" cy="317.319" r="16" style="fill:rgb(75,114,110);stroke:rgb(140,171,161);stroke-width:4px;"/>
                            </g>
                        </g>
                    </g>
                    <g transform="matrix(1.02216,-0.943639,0.72393,0.784165,1284.9,726.093)">
                        <ellipse cx="512.441" cy="264.598" rx="22.044" ry="20.907" style="fill:rgb(75,61,68);"/>
                    </g>
                </g>
                <path d="M2084.04,655.946C2002.08,644.393 1940.29,593.776 1940.29,533.161C1940.29,516.696 1944.85,500.968 1953.14,486.561C1945.07,477.255 1940.29,465.697 1940.29,453.18C1940.29,422.429 1969.14,397.463 2004.68,397.463C2024.12,397.463 2041.56,404.939 2053.37,416.748C2062.99,414.072 2073.01,411.96 2083.36,410.472C2083.02,410.964 2098.99,410.472 2107.58,410.472C2130.24,410.472 2151.82,414.008 2171.39,420.387C2169.75,414.705 2168.88,408.759 2168.88,402.637C2168.88,383.649 2177.28,366.348 2191.03,353.381C2206.37,338.906 2228.39,329.829 2252.83,329.829C2295,329.829 2329.95,356.855 2335.89,392.01C2340.81,391.064 2345.89,390.57 2351.09,390.57C2396.47,390.57 2433.32,428.343 2433.32,474.868C2433.32,521.394 2396.47,559.166 2351.09,559.166C2337.31,559.166 2334.58,561.799 2324.44,556.404C2323.91,556.012 2323.22,555.621 2322.33,555.229C2323.07,555.658 2323.77,556.048 2324.44,556.404C2324.95,556.784 2325.32,557.165 2325.56,557.551C2313.9,553.088 2302.72,547.36 2295.48,542.325C2282.51,561.446 2255.07,580.939 2220.76,593.287C2208.79,597.593 2197.01,600.664 2185.84,602.547C2159.03,630.68 2123.62,650.01 2084.04,655.946Z" style="fill:none;stroke:rgb(77,69,57);stroke-width:8px;stroke-linejoin:bevel;"/>
            </g>
        </g>
    </g>
</svg>
