<?xml version="1.0" encoding="UTF-8" standalone="no"?>
<!DOCTYPE svg PUBLIC "-//W3C//DTD SVG 1.1//EN" "http://www.w3.org/Graphics/SVG/1.1/DTD/svg11.dtd">
<svg width="100%" height="100%" viewBox="0 0 578 547" version="1.1" xmlns="http://www.w3.org/2000/svg" xmlns:xlink="http://www.w3.org/1999/xlink" xml:space="preserve" xmlns:serif="http://www.serif.com/" style="fill-rule:evenodd;clip-rule:evenodd;stroke-linejoin:round;stroke-miterlimit:2;">
    <g transform="matrix(1,0,0,1,-565.16,-320.328)">
        <g transform="matrix(1.37595,0,0,1.37595,-200.466,-72.0433)">
            <g transform="matrix(1,0,0,1,12.3424,-8.54474)">
                <path d="M718.844,479.152L608.369,426.822L605.766,424.442L544.921,321.005C543.242,318.151 544.197,314.47 547.051,312.791C549.905,311.112 553.586,312.067 555.265,314.921L593.251,379.497C593.917,377.938 595.236,376.668 596.979,376.123C596.979,376.123 638.676,363.093 638.676,363.093L605.671,302.583C604.085,299.675 605.158,296.028 608.065,294.442C610.972,292.856 614.62,293.929 616.205,296.836L652.712,363.766L649.235,372.366L600.559,387.577C599.754,387.829 598.935,387.902 598.146,387.819L615.174,416.767L719.035,465.965L720.587,358.903C720.659,353.936 724.75,349.962 729.716,350.034C734.683,350.106 738.657,354.197 738.585,359.164L735.62,563.734L814.336,608.101L827.759,538.335C827.773,538.258 827.788,538.18 827.804,538.103L848.426,430.914C849.052,427.662 852.2,425.53 855.452,426.156C858.704,426.781 860.836,429.929 860.21,433.181L841.093,532.546L895.379,526.886L952.018,342.064C952.989,338.898 956.347,337.115 959.513,338.086C962.679,339.056 964.462,342.414 963.492,345.58L905.689,534.2L900.574,538.41L838.724,544.859L825.361,614.315L898.287,655.418C902.614,657.857 904.147,663.351 901.708,667.678C899.269,672.005 889.029,693.476 884.701,691.037L722.124,576.789L717.545,568.819L718.844,479.152Z" style="fill:url(#_Linear1);"/>
            </g>
        </g>
    </g>
    <defs>
        <linearGradient id="_Linear1" x1="0" y1="0" x2="1" y2="0" gradientUnits="userSpaceOnUse" gradientTransform="matrix(-73.5772,179.934,-160.464,-65.6155,759.538,354.873)"><stop offset="0" style="stop-color:rgb(75,61,68);stop-opacity:1"/><stop offset="1" style="stop-color:rgb(121,68,74);stop-opacity:1"/></linearGradient>
    </defs>
</svg>
