<?xml version="1.0" encoding="UTF-8" standalone="no"?>
<!DOCTYPE svg PUBLIC "-//W3C//DTD SVG 1.1//EN" "http://www.w3.org/Graphics/SVG/1.1/DTD/svg11.dtd">
<svg width="100%" height="100%" viewBox="0 0 749 452" version="1.1" xmlns="http://www.w3.org/2000/svg" xmlns:xlink="http://www.w3.org/1999/xlink" xml:space="preserve" xmlns:serif="http://www.serif.com/" style="fill-rule:evenodd;clip-rule:evenodd;stroke-linejoin:round;stroke-miterlimit:2;">
    <g transform="matrix(1,0,0,1,-529.813,-121.742)">
        <g transform="matrix(1.37595,0,0,1.37595,-200.466,-72.0433)">
            <g transform="matrix(1,0,0,1,12.3424,-8.54474)">
                <path d="M676.36,337.904C660.526,347.607 641.842,353.213 621.84,353.213C564.752,353.213 518.403,307.546 518.403,251.298C518.403,195.049 564.752,149.382 621.84,149.382C648.872,149.382 673.495,159.621 691.931,176.374C707.764,166.671 726.448,161.064 746.451,161.064C803.539,161.064 849.887,206.731 849.887,262.98C849.887,268.227 849.484,273.382 848.706,278.417C855.698,280.521 862.375,283.335 868.653,286.775C886.436,255.9 920.105,235.052 958.678,235.052C1015.77,235.052 1062.12,280.719 1062.12,336.968C1062.12,393.216 1015.77,438.883 958.678,438.883C940.482,438.883 923.378,434.244 908.517,426.101C890.734,456.975 857.064,477.824 818.491,477.824C761.403,477.824 715.055,432.157 715.055,375.908C715.055,370.661 715.458,365.506 716.236,360.471C701.208,355.949 687.628,348.143 676.36,337.904Z" style="fill:rgb(77,69,57);"/>
                <clipPath id="_clip1">
                    <path d="M676.36,337.904C660.526,347.607 641.842,353.213 621.84,353.213C564.752,353.213 518.403,307.546 518.403,251.298C518.403,195.049 564.752,149.382 621.84,149.382C648.872,149.382 673.495,159.621 691.931,176.374C707.764,166.671 726.448,161.064 746.451,161.064C803.539,161.064 849.887,206.731 849.887,262.98C849.887,268.227 849.484,273.382 848.706,278.417C855.698,280.521 862.375,283.335 868.653,286.775C886.436,255.9 920.105,235.052 958.678,235.052C1015.77,235.052 1062.12,280.719 1062.12,336.968C1062.12,393.216 1015.77,438.883 958.678,438.883C940.482,438.883 923.378,434.244 908.517,426.101C890.734,456.975 857.064,477.824 818.491,477.824C761.403,477.824 715.055,432.157 715.055,375.908C715.055,370.661 715.458,365.506 716.236,360.471C701.208,355.949 687.628,348.143 676.36,337.904Z"/>
                </clipPath>
                <g clip-path="url(#_clip1)">
                    <g transform="matrix(1.02687,0.105023,-0.0704662,0.68899,38.5514,-48.7407)">
                        <path d="M676.36,337.904C660.526,347.607 641.842,353.213 621.84,353.213C564.752,353.213 518.403,307.546 518.403,251.298C518.403,195.049 564.752,149.382 621.84,149.382C648.872,149.382 673.495,159.621 691.931,176.374C707.764,166.671 726.448,161.064 746.451,161.064C803.539,161.064 849.887,206.731 849.887,262.98C849.887,268.227 849.484,273.382 848.706,278.417C855.698,280.521 862.375,283.335 868.653,286.775C886.436,255.9 920.105,235.052 958.678,235.052C1015.77,235.052 1062.12,280.719 1062.12,336.968C1062.12,393.216 1015.77,438.883 958.678,438.883C940.482,438.883 923.378,434.244 908.517,426.101C890.734,456.975 857.064,477.824 818.491,477.824C761.403,477.824 715.055,432.157 715.055,375.908C715.055,370.661 715.458,365.506 716.236,360.471C701.208,355.949 687.628,348.143 676.36,337.904Z" style="fill:rgb(119,116,59);"/>
                    </g>
                </g>
            </g>
        </g>
    </g>
</svg>
