<?xml version="1.0" encoding="UTF-8" standalone="no"?>
<!DOCTYPE svg PUBLIC "-//W3C//DTD SVG 1.1//EN" "http://www.w3.org/Graphics/SVG/1.1/DTD/svg11.dtd">
<svg width="100%" height="100%" viewBox="0 0 500 201" version="1.1" xmlns="http://www.w3.org/2000/svg" xmlns:xlink="http://www.w3.org/1999/xlink" xml:space="preserve" xmlns:serif="http://www.serif.com/" style="fill-rule:evenodd;clip-rule:evenodd;stroke-linejoin:round;stroke-miterlimit:2;">
    <g transform="matrix(1,0,0,1,-1704.3,-258.484)">
        <path d="M1901.75,368.081L1888.55,437.736C1887.62,442.617 1882.91,445.828 1878.03,444.903C1873.15,443.977 1869.94,439.264 1870.86,434.384L1887.45,346.86C1887.5,346.633 1887.55,346.409 1887.61,346.189L1882.6,270.812C1882.77,265.847 1894.48,259.684 1899.44,259.846C1904.41,260.009 1908.31,269.458 1908.14,274.422L1905.55,348.209C1905.54,348.554 1905.51,348.894 1905.46,349.228L1925.32,387.348L1926,390.12L1926,430.771C1926,434.083 1923.31,436.771 1920,436.771C1916.69,436.771 1914,434.083 1914,430.771L1914,391.59L1901.75,368.081ZM1742.34,333.495L1722.53,374.542L1746.69,447.027C1748.26,451.74 1745.71,456.841 1741,458.411C1736.29,459.982 1731.18,457.432 1729.61,452.719L1704.3,376.766L1704.73,370.007L1741.48,275.21C1743.64,270.737 1756.58,271.879 1761.05,274.039C1765.53,276.198 1771.93,286.114 1769.78,290.587L1747.61,322.59L1788.93,349.928L1791.62,354.932L1791.62,430.885C1791.62,434.197 1788.93,436.885 1785.62,436.885C1782.31,436.885 1779.62,434.197 1779.62,430.885L1779.62,358.157L1742.34,333.495ZM2008.57,297.344L1959.72,293.069C1954.87,292.012 1953.29,281.172 1954.35,276.319C1955.41,271.465 1963.98,263.098 1968.84,264.155L2138.42,307.213L2156.58,263.363C2158.71,258.873 2166.48,257.294 2170.97,259.417C2175.46,261.54 2179.45,268.284 2177.32,272.775L2156.47,311.145L2197.09,319.995C2202.74,322.963 2205.55,327.068 2202.94,333.336L2140.72,439.63C2138.21,443.916 2132.7,445.359 2128.41,442.85C2124.12,440.341 2122.68,434.823 2125.19,430.536L2181.15,334.943L2100.36,317.342L2111.34,346.093L2111.65,349.22L2097.39,434.773C2096.85,438.04 2093.76,440.25 2090.49,439.705C2087.22,439.161 2085.01,436.067 2085.56,432.8L2099.55,348.852L2086.35,314.29L2020.51,299.943L1999.47,349.535L2007.75,369.131L2066.42,391.898L2069.87,399.598L2054.32,441.079C2053.15,444.179 2049.69,445.753 2046.59,444.59C2043.49,443.427 2041.92,439.966 2043.08,436.865L2056.55,400.939L2014.25,384.525L2023.12,405.528L2022.88,410.695L2003.43,446.99C2001.87,449.909 1998.23,451.01 1995.31,449.446C1992.39,447.882 1991.29,444.243 1992.86,441.324L2010.95,407.555L1987.43,351.863L1987.43,347.187L2008.57,297.344ZM1810.22,279.854C1810.22,274.886 1820.3,266.323 1825.26,266.323C1830.23,266.323 1838.79,271.866 1838.79,276.833L1834.26,365.76L1862.23,442.036C1863.94,446.699 1861.54,451.874 1856.88,453.584C1852.21,455.294 1847.04,452.896 1845.33,448.232L1816.81,370.456L1816.26,367.358L1810.22,279.854Z" style="fill:url(#_Linear1);"/>
    </g>
    <defs>
        <linearGradient id="_Linear1" x1="0" y1="0" x2="1" y2="0" gradientUnits="userSpaceOnUse" gradientTransform="matrix(-22.7325,-308.659,290.582,-21.4012,1920,569.669)"><stop offset="0" style="stop-color:rgb(75,61,68);stop-opacity:1"/><stop offset="1" style="stop-color:rgb(121,68,74);stop-opacity:1"/></linearGradient>
    </defs>
</svg>
