<?xml version="1.0" encoding="UTF-8" standalone="no"?>
<!DOCTYPE svg PUBLIC "-//W3C//DTD SVG 1.1//EN" "http://www.w3.org/Graphics/SVG/1.1/DTD/svg11.dtd">
<svg width="100%" height="100%" viewBox="0 0 641 310" version="1.1" xmlns="http://www.w3.org/2000/svg" xmlns:xlink="http://www.w3.org/1999/xlink" xml:space="preserve" xmlns:serif="http://www.serif.com/" style="fill-rule:evenodd;clip-rule:evenodd;stroke-linejoin:round;stroke-miterlimit:2;">
    <g transform="matrix(1,0,0,1,-1662.77,-370.076)">
        <path d="M1891.67,635.003C1867.63,661.771 1832.77,678.62 1794,678.62C1721.57,678.62 1662.77,619.819 1662.77,547.393C1662.77,490.633 1698.89,442.242 1749.37,423.963C1770.93,391.496 1807.83,370.076 1849.69,370.076C1898.87,370.076 1941.19,399.632 1959.85,441.932C1968.09,440.15 1976.63,439.211 1985.4,439.211C1993.02,439.211 2000.47,439.92 2007.69,441.275C2028.75,406.296 2067.1,382.879 2110.87,382.879C2150.45,382.879 2185.6,402.032 2207.53,431.568C2261.99,443.079 2302.91,491.455 2302.91,549.313C2302.91,615.733 2248.98,669.658 2182.56,669.658C2143.96,669.658 2109.59,651.449 2087.56,623.161C2066.29,657.22 2028.48,679.9 1985.4,679.9C1947.54,679.9 1913.73,662.376 1891.67,635.003Z" style="fill:rgb(77,69,57);"/>
        <clipPath id="_clip1">
            <path d="M1891.67,635.003C1867.63,661.771 1832.77,678.62 1794,678.62C1721.57,678.62 1662.77,619.819 1662.77,547.393C1662.77,490.633 1698.89,442.242 1749.37,423.963C1770.93,391.496 1807.83,370.076 1849.69,370.076C1898.87,370.076 1941.19,399.632 1959.85,441.932C1968.09,440.15 1976.63,439.211 1985.4,439.211C1993.02,439.211 2000.47,439.92 2007.69,441.275C2028.75,406.296 2067.1,382.879 2110.87,382.879C2150.45,382.879 2185.6,402.032 2207.53,431.568C2261.99,443.079 2302.91,491.455 2302.91,549.313C2302.91,615.733 2248.98,669.658 2182.56,669.658C2143.96,669.658 2109.59,651.449 2087.56,623.161C2066.29,657.22 2028.48,679.9 1985.4,679.9C1947.54,679.9 1913.73,662.376 1891.67,635.003Z"/>
        </clipPath>
        <g clip-path="url(#_clip1)">
            <g transform="matrix(1.20187,0,0,1.04231,-405.288,-144.008)">
                <path d="M1891.67,635.003C1867.63,661.771 1832.77,678.62 1794,678.62C1721.57,678.62 1662.77,619.819 1662.77,547.393C1662.77,490.633 1698.89,442.242 1749.37,423.963C1770.93,391.496 1807.83,370.076 1849.69,370.076C1898.87,370.076 1941.19,399.632 1959.85,441.932C1968.09,440.15 1976.63,439.211 1985.4,439.211C1993.02,439.211 2000.47,439.92 2007.69,441.275C2028.75,406.296 2067.1,382.879 2110.87,382.879C2150.45,382.879 2185.6,402.032 2207.53,431.568C2261.99,443.079 2302.91,491.455 2302.91,549.313C2302.91,615.733 2248.98,669.658 2182.56,669.658C2143.96,669.658 2109.59,651.449 2087.56,623.161C2066.29,657.22 2028.48,679.9 1985.4,679.9C1947.54,679.9 1913.73,662.376 1891.67,635.003Z" style="fill:rgb(119,116,59);"/>
            </g>
        </g>
    </g>
</svg>
