<?xml version="1.0" encoding="UTF-8" standalone="no"?>
<!DOCTYPE svg PUBLIC "-//W3C//DTD SVG 1.1//EN" "http://www.w3.org/Graphics/SVG/1.1/DTD/svg11.dtd">
<svg width="100%" height="100%" viewBox="0 0 4041 1417" version="1.1" xmlns="http://www.w3.org/2000/svg" xmlns:xlink="http://www.w3.org/1999/xlink" xml:space="preserve" xmlns:serif="http://www.serif.com/" style="fill-rule:evenodd;clip-rule:evenodd;stroke-linejoin:round;stroke-miterlimit:2;">
    <g transform="matrix(1,0,0,1,82.8522,-1078.4)">
        <g id="battle_field_ground">
            <g transform="matrix(1.00379,0,0,1.52165,-15.7968,1473.46)">
                <rect x="15.737" y="270.169" width="3825.49" height="400.87" style="fill:rgb(199,123,88);"/>
                <clipPath id="_clip1">
                    <rect x="15.737" y="270.169" width="3825.49" height="400.87"/>
                </clipPath>
                <g clip-path="url(#_clip1)">
                    <g transform="matrix(0.99622,0,0,1,-93.6314,69.2228)">
                        <ellipse cx="137.784" cy="498.813" rx="26.136" ry="50.48" style="fill:rgb(209,177,135);"/>
                    </g>
                    <g transform="matrix(0.99622,0,0,1,1348.58,61.146)">
                        <ellipse cx="137.784" cy="498.813" rx="26.136" ry="50.48" style="fill:rgb(209,177,135);"/>
                    </g>
                    <g transform="matrix(0.99622,0,0,1,1787.81,-119.394)">
                        <ellipse cx="137.784" cy="498.813" rx="26.136" ry="50.48" style="fill:rgb(209,177,135);"/>
                    </g>
                    <g transform="matrix(0.99622,0,0,1,556.446,-112.077)">
                        <ellipse cx="137.784" cy="498.813" rx="26.136" ry="50.48" style="fill:rgb(209,177,135);"/>
                    </g>
                    <g transform="matrix(0.99622,0,0,1,901.974,57.7906)">
                        <ellipse cx="137.784" cy="498.813" rx="26.136" ry="50.48" style="fill:rgb(209,177,135);"/>
                    </g>
                    <g transform="matrix(0.99622,0,0,1,287.227,-149.563)">
                        <ellipse cx="137.784" cy="498.813" rx="26.136" ry="50.48" style="fill:rgb(209,177,135);"/>
                    </g>
                    <g transform="matrix(0.99622,0,0,1,-4.33122,-138.161)">
                        <ellipse cx="137.784" cy="498.813" rx="26.136" ry="50.48" style="fill:rgb(209,177,135);"/>
                    </g>
                    <g transform="matrix(0.99622,0,0,1,1648.47,51.8247)">
                        <ellipse cx="137.784" cy="498.813" rx="26.136" ry="50.48" style="fill:rgb(209,177,135);"/>
                    </g>
                    <g transform="matrix(0.99622,0,0,1,676.477,61.3836)">
                        <ellipse cx="137.784" cy="498.813" rx="26.136" ry="50.48" style="fill:rgb(209,177,135);"/>
                    </g>
                    <g transform="matrix(0.99622,0,0,1,418.997,40.8591)">
                        <ellipse cx="137.784" cy="498.813" rx="26.136" ry="50.48" style="fill:rgb(209,177,135);"/>
                    </g>
                    <g transform="matrix(0.99622,0,0,1,1198.06,-131.604)">
                        <ellipse cx="137.784" cy="498.813" rx="26.136" ry="50.48" style="fill:rgb(209,177,135);"/>
                    </g>
                    <g transform="matrix(0.99622,0,0,1,1951.57,52.7367)">
                        <ellipse cx="137.784" cy="498.813" rx="26.136" ry="50.48" style="fill:rgb(209,177,135);"/>
                    </g>
                    <g transform="matrix(0.99622,0,0,1,2146.58,-66.9898)">
                        <ellipse cx="137.784" cy="498.813" rx="26.136" ry="50.48" style="fill:rgb(209,177,135);"/>
                    </g>
                    <g transform="matrix(0.99622,0,0,1,2354.83,85.0438)">
                        <ellipse cx="137.784" cy="498.813" rx="26.136" ry="50.48" style="fill:rgb(209,177,135);"/>
                    </g>
                    <g transform="matrix(0.99622,0,0,1,2411.63,-150.608)">
                        <ellipse cx="137.784" cy="498.813" rx="26.136" ry="50.48" style="fill:rgb(209,177,135);"/>
                    </g>
                    <g transform="matrix(0.99622,0,0,1,2754.31,147.758)">
                        <ellipse cx="137.784" cy="498.813" rx="26.136" ry="50.48" style="fill:rgb(209,177,135);"/>
                    </g>
                    <g transform="matrix(0.99622,0,0,1,2693.72,-66.9898)">
                        <ellipse cx="137.784" cy="498.813" rx="26.136" ry="50.48" style="fill:rgb(209,177,135);"/>
                    </g>
                    <g transform="matrix(0.99622,0,0,1,1334.38,-219.023)">
                        <ellipse cx="137.784" cy="498.813" rx="26.136" ry="50.48" style="fill:rgb(209,177,135);"/>
                    </g>
                    <g transform="matrix(0.99622,0,0,1,291.203,132.554)">
                        <ellipse cx="137.784" cy="498.813" rx="26.136" ry="50.48" style="fill:rgb(209,177,135);"/>
                    </g>
                    <g transform="matrix(0.99622,0,0,1,1209.42,168.662)">
                        <ellipse cx="137.784" cy="498.813" rx="26.136" ry="50.48" style="fill:rgb(209,177,135);"/>
                    </g>
                    <g transform="matrix(0.99622,0,0,1,959.516,-222.824)">
                        <ellipse cx="137.784" cy="498.813" rx="26.136" ry="50.48" style="fill:rgb(209,177,135);"/>
                    </g>
                    <g transform="matrix(0.99622,0,0,1,1633.51,-201.92)">
                        <ellipse cx="137.784" cy="498.813" rx="26.136" ry="50.48" style="fill:rgb(209,177,135);"/>
                    </g>
                    <g transform="matrix(0.99622,0,0,1,1997.01,-158.21)">
                        <ellipse cx="137.784" cy="498.813" rx="26.136" ry="50.48" style="fill:rgb(209,177,135);"/>
                    </g>
                    <g transform="matrix(0.99622,0,0,1,2296.14,-224.725)">
                        <ellipse cx="137.784" cy="498.813" rx="26.136" ry="50.48" style="fill:rgb(209,177,135);"/>
                    </g>
                    <g transform="matrix(0.99622,0,0,1,2178.76,168.662)">
                        <ellipse cx="137.784" cy="498.813" rx="26.136" ry="50.48" style="fill:rgb(209,177,135);"/>
                    </g>
                    <g transform="matrix(0.99622,0,0,1,2553.9,56.5375)">
                        <ellipse cx="137.784" cy="498.813" rx="26.136" ry="50.48" style="fill:rgb(209,177,135);"/>
                    </g>
                    <g transform="matrix(0.99622,0,0,1,2862.5,-184.816)">
                        <ellipse cx="137.784" cy="498.813" rx="26.136" ry="50.48" style="fill:rgb(209,177,135);"/>
                    </g>
                    <g transform="matrix(0.99622,0,0,1,2960.95,29.9316)">
                        <ellipse cx="137.784" cy="498.813" rx="26.136" ry="50.48" style="fill:rgb(209,177,135);"/>
                    </g>
                    <g transform="matrix(0.99622,0,0,1,3133.23,-177.214)">
                        <ellipse cx="137.784" cy="498.813" rx="26.136" ry="50.48" style="fill:rgb(209,177,135);"/>
                    </g>
                    <g transform="matrix(0.99622,0,0,1,3224.11,140.156)">
                        <ellipse cx="137.784" cy="498.813" rx="26.136" ry="50.48" style="fill:rgb(209,177,135);"/>
                    </g>
                    <g transform="matrix(0.99622,0,0,1,3394.5,-160.11)">
                        <ellipse cx="137.784" cy="498.813" rx="26.136" ry="50.48" style="fill:rgb(209,177,135);"/>
                    </g>
                    <g transform="matrix(0.99622,0,0,1,3515.66,117.351)">
                        <ellipse cx="137.784" cy="498.813" rx="26.136" ry="50.48" style="fill:rgb(209,177,135);"/>
                    </g>
                    <g transform="matrix(0.99622,0,0,1,3604.65,-163.911)">
                        <ellipse cx="137.784" cy="498.813" rx="26.136" ry="50.48" style="fill:rgb(209,177,135);"/>
                    </g>
                    <g transform="matrix(0.99622,0,0,1,3282.14,-46.4652)">
                        <ellipse cx="137.784" cy="498.813" rx="26.136" ry="50.48" style="fill:rgb(209,177,135);"/>
                    </g>
                    <g transform="matrix(0.99622,0,0,1,3691.08,-9.97719)">
                        <ellipse cx="137.784" cy="498.813" rx="26.136" ry="50.48" style="fill:rgb(209,177,135);"/>
                    </g>
                    <g transform="matrix(0.99622,0,0,1,1031.93,-24.7054)">
                        <ellipse cx="137.784" cy="498.813" rx="26.136" ry="50.48" style="fill:rgb(209,177,135);"/>
                    </g>
                    <g transform="matrix(0.99622,0,0,1,134.254,7.12656)">
                        <ellipse cx="137.784" cy="498.813" rx="26.136" ry="50.48" style="fill:rgb(209,177,135);"/>
                    </g>
                    <g transform="matrix(0.99622,0,0,1,1447.69,-121.152)">
                        <ellipse cx="137.784" cy="498.813" rx="26.136" ry="50.48" style="fill:rgb(209,177,135);"/>
                    </g>
                    <g transform="matrix(0.99622,0,0,1,797.266,-126.663)">
                        <ellipse cx="137.784" cy="498.813" rx="26.136" ry="50.48" style="fill:rgb(209,177,135);"/>
                    </g>
                </g>
            </g>
            <g transform="matrix(1.02533,0,0,4.26095,-32.2218,532.318)">
                <path d="M3821.81,222.758C3821.81,196.403 3776.93,172.551 3704.57,155.391C3633.57,138.555 3536.14,128.159 3428.69,128.159L390.442,128.159C173.472,128.159 -2.681,170.547 -2.681,222.758C-2.681,274.968 -146.447,317.357 70.523,317.357L3784.6,317.357C4001.57,317.357 3821.81,274.968 3821.81,222.758Z" style="fill:rgb(119,116,59);"/>
            </g>
        </g>
    </g>
</svg>
